<svg width="1352" height="462" viewBox="0 0 1352 462" fill="none" xmlns="http://www.w3.org/2000/svg">
<path d="M0 3.99999C0 1.79085 1.79086 0 4 0H1348C1350.21 0 1352 1.79086 1352 4V458C1352 460.209 1350.21 462 1348 462H4.00002C1.79088 462 0 460.209 0 458V3.99999Z" fill="#DFE1F3"/>
<path d="M0 3.99999C0 1.79085 1.79086 0 4 0H1348C1350.21 0 1352 1.79086 1352 4V458C1352 460.209 1350.21 462 1348 462H4.00002C1.79088 462 0 460.209 0 458V3.99999Z" fill="url(#paint0_linear_0_1)"/>
<path d="M0 3.99999C0 1.79085 1.79086 0 4 0H1348C1350.21 0 1352 1.79086 1352 4V458C1352 460.209 1350.21 462 1348 462H4.00002C1.79088 462 0 460.209 0 458V3.99999Z" fill="url(#paint1_radial_0_1)"/>
<mask id="mask0_0_1" style="mask-type:alpha" maskUnits="userSpaceOnUse" x="0" y="235" width="584" height="227">
<rect y="235" width="584" height="227" fill="#C4C4C4"/>
</mask>
<g mask="url(#mask0_0_1)">
<circle cx="13.4999" cy="521.5" r="245.5" transform="rotate(-10.4231 13.4999 521.5)" stroke="url(#paint2_linear_0_1)" stroke-width="2"/>
<circle cx="393.372" cy="546.372" r="257.5" transform="rotate(-75 393.372 546.372)" fill="#E1E3F4"/>
<circle cx="393.372" cy="546.372" r="257.5" transform="rotate(-75 393.372 546.372)" fill="url(#paint3_radial_0_1)"/>
<circle cx="393.372" cy="546.372" r="257.5" transform="rotate(-75 393.372 546.372)" fill="url(#paint4_radial_0_1)"/>
</g>
<path fill-rule="evenodd" clip-rule="evenodd" d="M632.241 459.192H141C182.115 328.343 319.498 251.999 453.252 287.838C541.45 311.471 606.625 378.136 632.241 459.192Z" fill="#E1E3F4"/>
<path fill-rule="evenodd" clip-rule="evenodd" d="M632.241 459.192H141C182.115 328.343 319.498 251.999 453.252 287.838C541.45 311.471 606.625 378.136 632.241 459.192Z" fill="url(#paint5_radial_0_1)"/>
<path fill-rule="evenodd" clip-rule="evenodd" d="M632.241 459.192H141C182.115 328.343 319.498 251.999 453.252 287.838C541.45 311.471 606.625 378.136 632.241 459.192Z" fill="url(#paint6_radial_0_1)"/>
<defs>
<linearGradient id="paint0_linear_0_1" x1="1253" y1="49.5" x2="515.539" y2="-114.518" gradientUnits="userSpaceOnUse">
<stop stop-color="white"/>
<stop offset="1" stop-color="white" stop-opacity="0"/>
</linearGradient>
<radialGradient id="paint1_radial_0_1" cx="0" cy="0" r="1" gradientUnits="userSpaceOnUse" gradientTransform="translate(-91.4999 -84.0349) rotate(42.3287) scale(329.368 747.33)">
<stop stop-color="#CFD2ED"/>
<stop offset="1" stop-color="#CFD2ED" stop-opacity="0"/>
</radialGradient>
<linearGradient id="paint2_linear_0_1" x1="276.5" y1="587.5" x2="-220" y2="319.5" gradientUnits="userSpaceOnUse">
<stop offset="0.15625" stop-color="#DFE1F3"/>
<stop offset="0.338542" stop-color="white"/>
<stop offset="1" stop-color="#03071C"/>
</linearGradient>
<radialGradient id="paint3_radial_0_1" cx="0" cy="0" r="1" gradientUnits="userSpaceOnUse" gradientTransform="translate(653.661 502.125) rotate(175.784) scale(267.22)">
<stop stop-color="white"/>
<stop offset="1" stop-color="white" stop-opacity="0"/>
</radialGradient>
<radialGradient id="paint4_radial_0_1" cx="0" cy="0" r="1" gradientUnits="userSpaceOnUse" gradientTransform="translate(575.84 684.998) rotate(146.917) scale(217.775)">
<stop stop-color="#F8DDDA"/>
<stop offset="1" stop-color="#F8DDDA" stop-opacity="0"/>
</radialGradient>
<radialGradient id="paint5_radial_0_1" cx="0" cy="0" r="1" gradientUnits="userSpaceOnUse" gradientTransform="translate(411.234 273.692) rotate(100.784) scale(267.219)">
<stop stop-color="white"/>
<stop offset="1" stop-color="white" stop-opacity="0"/>
</radialGradient>
<radialGradient id="paint6_radial_0_1" cx="0" cy="0" r="1" gradientUnits="userSpaceOnUse" gradientTransform="translate(567.734 396.192) rotate(71.9166) scale(217.775)">
<stop stop-color="#F8DDDA"/>
<stop offset="1" stop-color="#F8DDDA" stop-opacity="0"/>
</radialGradient>
</defs>
</svg>
