<svg width="1352" height="462" viewBox="0 0 1352 462" fill="none" xmlns="http://www.w3.org/2000/svg">
<path d="M0 3.99999C0 1.79085 1.79086 0 4 0H1348C1350.21 0 1352 1.79086 1352 4V458C1352 460.209 1350.21 462 1348 462H4.00002C1.79088 462 0 460.209 0 458V3.99999Z" fill="#DFE1F3"/>
<path d="M0 3.99999C0 1.79085 1.79086 0 4 0H1348C1350.21 0 1352 1.79086 1352 4V458C1352 460.209 1350.21 462 1348 462H4.00002C1.79088 462 0 460.209 0 458V3.99999Z" fill="url(#paint0_linear_815_1522)"/>
<path d="M0 3.99999C0 1.79085 1.79086 0 4 0H1348C1350.21 0 1352 1.79086 1352 4V458C1352 460.209 1350.21 462 1348 462H4.00002C1.79088 462 0 460.209 0 458V3.99999Z" fill="url(#paint1_radial_815_1522)"/>
<defs>
<linearGradient id="paint0_linear_815_1522" x1="1253" y1="49.5" x2="515.539" y2="-114.518" gradientUnits="userSpaceOnUse">
<stop stop-color="white"/>
<stop offset="1" stop-color="white" stop-opacity="0"/>
</linearGradient>
<radialGradient id="paint1_radial_815_1522" cx="0" cy="0" r="1" gradientUnits="userSpaceOnUse" gradientTransform="translate(-91.4999 -84.0349) rotate(42.3287) scale(329.368 747.33)">
<stop stop-color="#CFD2ED"/>
<stop offset="1" stop-color="#CFD2ED" stop-opacity="0"/>
</radialGradient>
</defs>
</svg>
