<svg width="108" height="142" viewBox="0 0 108 142" fill="none" xmlns="http://www.w3.org/2000/svg">
  <g clip-path="url(#clip0_6:551)">
    <path d="M103.05 67.2197C102.011 68.6313 100.649 69.7738 99.0779 70.5517C97.5068 71.3295 95.7725 71.7203 94.0197 71.6912C92.3714 71.6869 90.7445 71.3176 89.2559 70.6099C84.229 68.038 82.5631 61.8421 82.3585 56.6399C82.2278 53.8014 81.876 50.9774 81.3064 48.1936C80.0234 41.3333 77.7698 34.6908 74.6137 28.4661C70.8583 20.8448 65.3129 14.2464 58.4517 9.2354C54.9022 6.79886 51.0511 4.834 46.9952 3.39021C44.7346 2.53091 42.4209 1.81827 40.0686 1.25672C38.8411 0.993682 37.5844 0.730648 36.3569 0.526067C35.7139 0.526067 32.8206 0.526067 32.4406 0C32.4406 0 45.8261 16.3081 43.1958 32.7331L44.4817 35.6556C43.7013 38.8733 41.9956 41.7919 39.5753 44.0512C37.155 46.3104 34.1261 47.8115 30.8624 48.3689C30.444 48.3979 30.0241 48.3979 29.6057 48.3689C27.8883 48.389 26.192 47.9896 24.664 47.2052C23.136 46.4209 21.8227 45.2753 20.8379 43.8681C19.2394 45.9151 17.5116 47.8578 15.665 49.6841C9.44294 55.9174 4.85275 63.5878 2.30032 72.017C-0.252107 80.4463 -0.688127 89.3746 1.03082 98.0125C2.74977 106.65 6.57072 114.732 12.1558 121.541C17.7408 128.351 24.9179 133.68 33.0522 137.056C41.1865 140.433 50.0275 141.753 58.7933 140.899C67.5591 140.046 75.9796 137.046 83.3101 132.164C90.6406 127.282 96.6553 120.67 100.822 112.911C104.989 105.151 107.18 96.485 107.201 87.6778C107.19 80.6505 105.779 73.6957 103.05 67.2197Z" fill="url(#paint0_linear_6)"/>
    <path d="M103.05 67.2197C102.011 68.6313 100.649 69.7738 99.0779 70.5517C97.5068 71.3295 95.7725 71.7203 94.0197 71.6912C92.3714 71.6869 90.7445 71.3176 89.2559 70.6099C84.229 68.038 82.5631 61.8421 82.3585 56.6399C82.2278 53.8014 81.876 50.9774 81.3064 48.1936C80.0234 41.3333 77.7698 34.6908 74.6137 28.4661C70.8583 20.8448 65.3129 14.2464 58.4517 9.2354C54.9022 6.79886 51.0511 4.834 46.9952 3.39021C44.7346 2.53091 42.4209 1.81827 40.0686 1.25672C38.8411 0.993682 37.5844 0.730648 36.3569 0.526067C35.7139 0.526067 32.8206 0.526067 32.4406 0C32.4406 0 45.8261 16.3081 43.1958 32.7331L44.4817 35.6556C43.7013 38.8733 41.9956 41.7919 39.5753 44.0512C37.155 46.3104 34.1261 47.8115 30.8624 48.3689C30.444 48.3979 30.0241 48.3979 29.6057 48.3689C27.8883 48.389 26.192 47.9896 24.664 47.2052C23.136 46.4209 21.8227 45.2753 20.8379 43.8681C19.2394 45.9151 17.5116 47.8578 15.665 49.6841C9.44294 55.9174 4.85275 63.5878 2.30032 72.017C-0.252107 80.4463 -0.688127 89.3746 1.03082 98.0125C2.74977 106.65 6.57072 114.732 12.1558 121.541C17.7408 128.351 24.9179 133.68 33.0522 137.056C41.1865 140.433 50.0275 141.753 58.7933 140.899C67.5591 140.046 75.9796 137.046 83.3101 132.164C90.6406 127.282 96.6553 120.67 100.822 112.911C104.989 105.151 107.18 96.485 107.201 87.6778C107.19 80.6505 105.779 73.6957 103.05 67.2197Z" fill="url(#paint1_radial_6)" fill-opacity="0.3"/>
    <path d="M103.05 67.2197C102.011 68.6313 100.649 69.7738 99.0779 70.5517C97.5068 71.3295 95.7725 71.7203 94.0197 71.6912C92.3714 71.6869 90.7445 71.3176 89.2559 70.6099C84.229 68.038 82.5631 61.8421 82.3585 56.6399C82.2278 53.8014 81.876 50.9774 81.3064 48.1936C80.0234 41.3333 77.7698 34.6908 74.6137 28.4661C70.8583 20.8448 65.3129 14.2464 58.4517 9.2354C54.9022 6.79886 51.0511 4.834 46.9952 3.39021C44.7346 2.53091 42.4209 1.81827 40.0686 1.25672C38.8411 0.993682 37.5844 0.730648 36.3569 0.526067C35.7139 0.526067 32.8206 0.526067 32.4406 0C32.4406 0 45.8261 16.3081 43.1958 32.7331L44.4817 35.6556C43.7013 38.8733 41.9956 41.7919 39.5753 44.0512C37.155 46.3104 34.1261 47.8115 30.8624 48.3689C30.444 48.3979 30.0241 48.3979 29.6057 48.3689C27.8883 48.389 26.192 47.9896 24.664 47.2052C23.136 46.4209 21.8227 45.2753 20.8379 43.8681C19.2394 45.9151 17.5116 47.8578 15.665 49.6841C9.44294 55.9174 4.85275 63.5878 2.30032 72.017C-0.252107 80.4463 -0.688127 89.3746 1.03082 98.0125C2.74977 106.65 6.57072 114.732 12.1558 121.541C17.7408 128.351 24.9179 133.68 33.0522 137.056C41.1865 140.433 50.0275 141.753 58.7933 140.899C67.5591 140.046 75.9796 137.046 83.3101 132.164C90.6406 127.282 96.6553 120.67 100.822 112.911C104.989 105.151 107.18 96.485 107.201 87.6778C107.19 80.6505 105.779 73.6957 103.05 67.2197Z" fill="url(#paint2_radial_6)" fill-opacity="0.6"/>
    <path fill-rule="evenodd" clip-rule="evenodd" d="M32.4412 0C32.4412 0 43.8393 14.613 42.6995 30.1319C42.8406 33.7593 42.1089 37.3675 40.566 40.6533C39.8588 42.2697 38.8272 43.7236 37.5352 44.9251C36.2432 46.1266 34.7183 47.0501 33.0549 47.6383C30.826 48.3825 28.4157 48.3825 26.1868 47.6383C24.2323 46.9628 22.5094 45.7467 21.2184 44.1312L20.8969 43.8389C19.2806 45.8977 17.5331 47.8502 15.6655 49.6841C10.6755 54.6694 6.72218 60.5934 4.03352 67.1144C1.34486 73.6355 -0.0258885 80.6243 0.000370243 87.6778C12.9475 94.4582 24.7255 90.1913 33.2595 84.2584C43.6931 76.7892 50.9339 65.6672 53.5423 53.1035C61.3748 17.8278 32.4412 0 32.4412 0Z" fill="url(#paint3_linear_6)"/>
    <g opacity="0.4">
      <path d="M103.051 67.2203C102.011 68.6319 100.649 69.7744 99.0779 70.5523C97.5069 71.3301 95.7725 71.7209 94.0197 71.6918C92.3714 71.6875 90.7445 71.3182 89.2559 70.6105C87.7765 69.7435 86.4932 68.579 85.4871 67.1905C84.4809 65.802 83.7739 64.2199 83.4107 62.5441C83.6663 64.6292 83.8029 66.7271 83.8199 68.8277C83.8086 77.6653 81.5991 86.3613 77.3904 94.1324C73.1817 101.903 67.106 108.506 59.7106 113.344C52.3152 118.183 43.8323 121.105 35.0261 121.849C26.2198 122.593 17.3668 121.135 9.2645 117.606C15.675 127.114 24.9687 134.313 35.7776 138.142C46.5864 141.972 58.3392 142.23 69.3058 138.879C80.2724 135.528 89.8734 128.744 96.6953 119.527C103.517 110.31 107.2 99.1456 107.201 87.6784C107.19 80.6511 105.779 73.6963 103.051 67.2203Z" fill="url(#paint4_linear_6)"/>  
      <path d="M103.051 67.2203C102.011 68.6319 100.649 69.7744 99.0779 70.5523C97.5069 71.3301 95.7725 71.7209 94.0197 71.6918C92.3714 71.6875 90.7445 71.3182 89.2559 70.6105C87.7765 69.7435 86.4932 68.579 85.4871 67.1905C84.4809 65.802 83.7739 64.2199 83.4107 62.5441C83.6663 64.6292 83.8029 66.7271 83.8199 68.8277C83.8086 77.6653 81.5991 86.3613 77.3904 94.1324C73.1817 101.903 67.106 108.506 59.7106 113.344C52.3152 118.183 43.8323 121.105 35.0261 121.849C26.2198 122.593 17.3668 121.135 9.2645 117.606C15.675 127.114 24.9687 134.313 35.7776 138.142C46.5864 141.972 58.3392 142.23 69.3058 138.879C80.2724 135.528 89.8734 128.744 96.6953 119.527C103.517 110.31 107.2 99.1456 107.201 87.6784C107.19 80.6511 105.779 73.6963 103.051 67.2203Z" fill="url(#paint5_radial_6)" fill-opacity="0.4"/>
      <path d="M103.051 67.2203C102.011 68.6319 100.649 69.7744 99.0779 70.5523C97.5069 71.3301 95.7725 71.7209 94.0197 71.6918C92.3714 71.6875 90.7445 71.3182 89.2559 70.6105C87.7765 69.7435 86.4932 68.579 85.4871 67.1905C84.4809 65.802 83.7739 64.2199 83.4107 62.5441C83.6663 64.6292 83.8029 66.7271 83.8199 68.8277C83.8086 77.6653 81.5991 86.3613 77.3904 94.1324C73.1817 101.903 67.106 108.506 59.7106 113.344C52.3152 118.183 43.8323 121.105 35.0261 121.849C26.2198 122.593 17.3668 121.135 9.2645 117.606C15.675 127.114 24.9687 134.313 35.7776 138.142C46.5864 141.972 58.3392 142.23 69.3058 138.879C80.2724 135.528 89.8734 128.744 96.6953 119.527C103.517 110.31 107.2 99.1456 107.201 87.6784C107.19 80.6511 105.779 73.6963 103.051 67.2203Z" fill="url(#paint6_radial_6)" fill-opacity="0.9"/>
    </g>
  </g>
  <defs>
    <linearGradient id="paint0_linear_6" x1="52.6067" y1="10.2291" x2="36.5324" y2="112.52" gradientUnits="userSpaceOnUse">
      <stop stop-color="#FF8A00"/>
      <stop offset="1" stop-color="#FC2D00"/>
    </linearGradient>
    <radialGradient id="paint1_radial_6" cx="0" cy="0" r="1" gradientUnits="userSpaceOnUse" gradientTransform="translate(3.97709e-06 115.442) rotate(-4.76364) scale(87.9817 66.8197)">
      <stop/>
      <stop offset="1" stop-opacity="0"/>
    </radialGradient>
    <radialGradient id="paint2_radial_6" cx="0" cy="0" r="1" gradientUnits="userSpaceOnUse" gradientTransform="translate(90.6004 51.1454) rotate(137.643) scale(67.2355 51.0635)">
      <stop stop-color="#FFC2A8" stop-opacity="0.97"/>
      <stop offset="1" stop-color="#FFC2A8" stop-opacity="0"/>
    </radialGradient>
    <linearGradient id="paint3_linear_6" x1="27.4436" y1="0" x2="27.4436" y2="91.1433" gradientUnits="userSpaceOnUse">
      <stop stop-color="#FD550A"/>
      <stop offset="1" stop-color="#CA2501"/>
    </linearGradient>
    <linearGradient id="paint4_linear_6" x1="108.136" y1="61.375" x2="80.3714" y2="119.827" gradientUnits="userSpaceOnUse">
      <stop stop-color="white"/>
      <stop offset="1" stop-color="#FF3300"/>
    </linearGradient>
    <radialGradient id="paint5_radial_6" cx="0" cy="0" r="1" gradientUnits="userSpaceOnUse" gradientTransform="translate(26.3035 137.362) rotate(-18.7999) scale(72.5516 90.3169)">
      <stop/>
      <stop offset="1" stop-opacity="0"/>
    </radialGradient>
    <radialGradient id="paint6_radial_6" cx="0" cy="0" r="1" gradientUnits="userSpaceOnUse" gradientTransform="translate(102.291 74.5267) rotate(109.537) scale(48.0676 59.8376)">
      <stop stop-color="#FFD9C8" stop-opacity="0.97"/>
      <stop offset="1" stop-color="#FFC2A8" stop-opacity="0"/>
    </radialGradient>
    <clipPath id="clip0_6:551">
      <rect width="107.201" height="141.22" fill="white"/>
    </clipPath>
  </defs>
</svg>
