<svg width="16" height="15" viewBox="0 0 16 15" fill="none" xmlns="http://www.w3.org/2000/svg">
<path d="M8 5.60005C8.44183 5.60005 8.8 5.95822 8.8 6.40005C8.8 6.84188 8.44183 7.20005 8 7.20005C7.55817 7.20005 7.2 6.84188 7.2 6.40005C7.2 5.95822 7.55817 5.60005 8 5.60005Z" fill="#FC2D00"/>
<path fill-rule="evenodd" clip-rule="evenodd" d="M6.4 0.800049C5.29543 0.800049 4.4 1.69548 4.4 2.80005V3.20005H1.6C0.716344 3.20005 0 3.91639 0 4.80005V12.8C0 13.6837 0.716345 14.4 1.6 14.4H14.4C15.2837 14.4 16 13.6837 16 12.8V4.80005C16 3.91639 15.2837 3.20005 14.4 3.20005H11.6V2.80005C11.6 1.69548 10.7046 0.800049 9.6 0.800049H6.4ZM10.8 3.20005V2.80005C10.8 2.13731 10.2627 1.60005 9.6 1.60005H6.4C5.73726 1.60005 5.2 2.13731 5.2 2.80005V3.20005H10.8ZM14.4 4.00005H1.6C1.15817 4.00005 0.8 4.35822 0.8 4.80005V12.8C0.8 13.2419 1.15817 13.6 1.6 13.6H14.4C14.8418 13.6 15.2 13.2419 15.2 12.8V4.80005C15.2 4.35822 14.8418 4.00005 14.4 4.00005Z" fill="#FC2D00"/>
</svg>
