<svg width="16" height="16" viewBox="0 0 16 16" fill="none" xmlns="http://www.w3.org/2000/svg">
<path fill-rule="evenodd" clip-rule="evenodd" d="M7.99999 0.799988C7.81568 0.799988 7.63299 0.806913 7.45216 0.820517C3.86333 1.09052 1.00851 3.99141 0.810911 7.59999C0.803661 7.7324 0.799988 7.86576 0.799988 7.99999C0.799988 8.13421 0.803661 8.26758 0.810911 8.39999C1.00851 12.0086 3.86333 14.9095 7.45216 15.1795C7.63299 15.1931 7.81568 15.2 7.99999 15.2C8.18429 15.2 8.36699 15.1931 8.54781 15.1795C12.1366 14.9095 14.9915 12.0086 15.1891 8.39999C15.1963 8.26758 15.2 8.13421 15.2 7.99999C15.2 7.86576 15.1963 7.7324 15.1891 7.59999C14.9915 3.99141 12.1366 1.09052 8.54781 0.820517C8.36698 0.806913 8.18429 0.799988 7.99999 0.799988ZM8.13681 1.60142C8.33805 1.88124 8.58966 2.27376 8.84222 2.77887C9.38434 3.86313 9.9324 5.46913 9.99422 7.59999H6.00576C6.06757 5.46913 6.61563 3.86313 7.15776 2.77887C7.41032 2.27376 7.66193 1.88124 7.86316 1.60142C7.90866 1.60047 7.95427 1.59999 7.99999 1.59999C8.04571 1.59999 8.09132 1.60047 8.13681 1.60142ZM6.00576 8.39999H9.99422C9.9324 10.5308 9.38434 12.1368 8.84222 13.2211C8.58966 13.7262 8.33805 14.1187 8.13681 14.3986C8.09132 14.3995 8.04571 14.4 7.99999 14.4C7.95427 14.4 7.90866 14.3995 7.86316 14.3986C7.66193 14.1187 7.41032 13.7262 7.15776 13.2211C6.61563 12.1368 6.06757 10.5308 6.00576 8.39999ZM5.20544 7.59999C5.26764 5.32899 5.85194 3.60165 6.44222 2.4211C6.57551 2.15452 6.70902 1.91597 6.83678 1.70544C3.98509 2.22905 1.79464 4.64285 1.61228 7.59999H5.20544ZM1.61228 8.39999H5.20544C5.26764 10.671 5.85194 12.3983 6.44222 13.5789C6.57551 13.8455 6.70902 14.084 6.83678 14.2945C3.98509 13.7709 1.79464 11.3571 1.61228 8.39999ZM9.16319 14.2945C12.0149 13.7709 14.2053 11.3571 14.3877 8.39999H10.7945C10.7323 10.671 10.148 12.3983 9.55776 13.5789C9.42447 13.8455 9.29095 14.084 9.16319 14.2945ZM10.7945 7.59999C10.7323 5.32899 10.148 3.60165 9.55776 2.4211C9.42447 2.15452 9.29095 1.91597 9.16319 1.70544C12.0149 2.22905 14.2053 4.64285 14.3877 7.59999H10.7945Z" fill="#FC2D00"/>
</svg>
