<svg width="15" height="14" viewBox="0 0 15 14" fill="none" xmlns="http://www.w3.org/2000/svg">
<path fill-rule="evenodd" clip-rule="evenodd" d="M10.9066 9.3384L12.1023 13.1166C12.2581 13.609 11.6671 14.0043 11.2432 13.6913L8.18358 11.4322C7.87587 11.185 7.33273 11.185 7.02502 11.4322L3.96539 13.6913C3.54148 14.0043 2.95045 13.609 3.10627 13.1166L4.302 9.3384C4.40113 9.00395 4.20777 8.51053 3.90755 8.31758L0.62544 5.9285C0.201468 5.61988 0.427876 4.96865 0.959141 4.96865H4.8699C5.24036 4.96865 5.62649 4.64977 5.72827 4.30638L7.13722 0.555113C7.31803 0.0737109 8.02992 0.0896576 8.18734 0.578636L9.39838 4.34107C9.50016 4.68446 9.87394 4.96865 10.2444 4.96865H14.2495C14.7807 4.96865 15.0071 5.61988 14.5832 5.9285L11.301 8.31758C11.0008 8.51053 10.8075 9.00394 10.9066 9.3384ZM10.8452 7.65987L13.4434 5.76865H10.2444C9.5227 5.76865 8.84069 5.25611 8.63454 4.57897L7.64044 1.49055L6.48532 4.56601C6.37465 4.91086 6.14661 5.19627 5.89513 5.39452C5.63597 5.59884 5.2774 5.76865 4.8699 5.76865H1.76521L4.36337 7.65988C4.68033 7.87238 4.88686 8.19316 5.00031 8.48542C5.11562 8.78248 5.18401 9.17778 5.06902 9.56574L5.06694 9.57278L4.11262 12.5882L6.53917 10.7965C6.86231 10.5436 7.25741 10.4468 7.6043 10.4468C7.95119 10.4468 8.3463 10.5436 8.66945 10.7965L11.096 12.5882L10.1417 9.57278L10.1396 9.56574C10.0246 9.17778 10.093 8.78247 10.2083 8.48542C10.3217 8.19315 10.5283 7.87237 10.8452 7.65987Z" fill="white"/>
</svg>
